<svg width="3448" height="3448" viewBox="0 0 3448 3448" fill="none" xmlns="http://www.w3.org/2000/svg">
    <path d="M895.52 1532.17c-81.32 29.87-123.88 124.59-106.1 233.28 12.08 75.01 45.11 122.05 102.3 147.47 83.22 36.87 212.19-10.17 185.51-68.01l-7.62-17.16-18.43 13.98c-45.11 33.69-116.9 15.26-146.13-37.5-18.42-34.33-25.4-117.6-13.97-164.64 20.96-82 96.57-90.26 121.35-13.35 6.99 23.52 7.62 24.16 39.39 24.16h32.4l-4.45-49.58c-6.35-76.92-7.62-79.46-34.94-74.37l-29.23 3.81c-68.61-6.36-98.47-5.72-120.08 1.91z" fill="#fff" />
    <path d="M1202.39 1618.62c-38.75 6.99-54.64 15.89-69.25 40.04-15.88 26.07-15.88 36.87.64 57.85 18.42 22.88 52.73 20.98 71.15-3.82 12.07-15.89 12.07-18.43 2.54-32.41-12.07-18.44-8.89-23.52 14.62-23.52 32.4 0 40.66 12.71 40.66 64.2l.63 47.04-19.06-3.18c-35.58-5.72-82.59-1.91-102.29 8.26-25.41 13.35-43.2 49.58-38.12 79.46 8.9 57.84 87.05 89.63 143.59 59.11 22.24-11.44 22.87-11.44 37.48 0 24.15 19.71 84.5 12.72 93.4-10.17 2.54-5.72-1.27-15.89-7.63-22.88-10.16-11.44-12.7-27.33-15.24-113.78-3.18-100.43-3.18-101.07-21.6-120.14a89.01 89.01 0 00-49.56-25.43 154.37 154.37 0 00-81.96-.63zm54 194.51c6.99 2.54 10.17 12.08 10.17 28.6 0 20.98-2.54 26.06-16.52 32.42a36.22 36.22 0 01-47.01-51.49c6.99-13.35 31.76-17.8 53.36-9.53z" fill="#fff" />
    <path d="M1436.83 1628.79c-25.41 7.63-30.5 12.08-30.5 24.79 0 10.81 3.82 15.89 14.62 17.16 13.97 1.91 13.97 3.82 15.88 103.61 1.27 97.89 1.27 101.71-12.07 111.88-8.9 6.35-12.71 13.98-10.17 20.97 6.36 15.26 136.6 15.26 142.32-.63 2.54-6.99-.64-13.99-9.53-19.71-13.34-8.9-13.98-13.35-13.98-106.79 0-89.62 1.27-97.89 12.07-104.24 17.79-8.9 36.22-7.63 47.65 3.81 8.26 8.26 10.17 27.33 10.17 107.43 0 54.03 2.54 104.88 6.35 113.78 7.62 20.34 29.86 26.06 71.16 19.07 40.02-6.99 53.37-22.89 31.76-37.51-13.34-9.53-13.97-13.98-13.97-100.43 0-101.7-5.72-131.58-29.86-150.65-24.78-19.07-81.33-17.8-112.46 3.18l-23.51 15.89-5.71-15.89c-5.09-13.35-10.17-15.89-33.04-15.26-15.25 0-40.66 4.45-57.18 9.54z" fill="#fff" />
    <path d="M1836.45 1534.08c-9.53 9.53-3.81 27.96 10.8 33.69 12.71 4.44 18.43 15.25 29.23 52.12l48.29 164 38.12 128.4c5.08 18.43 48.28 15.25 71.79-5.09 21.6-17.79 31.13-44.49 61.63-167.81 9.53-39.41 18.42-69.92 19.69-66.74l36.21 127.13c33.04 116.96 34.95 120.77 51.47 122.68 9.53 1.27 24.14.63 32.4-1.27 34.94-8.9 44.47-31.78 104.19-249.81 26.05-94.72 27.32-96.62 47.65-103.61 17.16-5.73 19.7-9.54 17.16-22.25-2.54-15.89-3.18-15.89-71.16-15.89-67.98 0-68.62 0-71.16 15.89-2.54 12.71 0 17.8 13.34 24.15 9.53 4.45 17.16 13.99 18.43 22.89 2.54 13.98-39.39 191.33-48.92 209.13-2.54 4.44-17.16-38.78-32.4-98.53l-33.04-127.77c-5.72-19.7-6.99-20.34-40.03-20.34-28.59 0-36.21 2.54-46.38 15.26-10.16 13.35-50.82 150.01-62.26 211.67-2.54 11.44-5.72 20.98-8.26 20.98-3.81 0-49.55-172.9-56.54-211.04-1.91-14.62.63-18.43 13.97-24.15 17.16-6.36 19.06-10.81 12.71-27.97-3.18-8.27-16.52-10.17-78.14-10.17-41.3 0-76.88 1.9-78.79 4.45z" fill="#fff" />
    <path d="M2495.93 1627.52c-50.83 22.24-81.96 75-81.96 140.48-.63 73.73 24.14 120.77 75.61 143.65 74.33 34.33 188.69-12.71 156.29-63.56-4.45-6.99-8.26-6.99-20.33 1.9-17.79 12.72-74.34 13.35-89.58 1.28a127.26 127.26 0 01-30.5-60.39 203.18 203.18 0 0167.35-8.26c62.89-1.91 67.98-3.18 80.05-17.8 10.8-13.35 12.07-21.62 9.53-50.22-6.36-61.66-45.75-95.98-108.64-95.98-21.61.63-47.65 4.45-57.82 8.9zm73.06 41.95c3.82 7.63 6.36 25.43 5.09 40.05l-1.91 26.69-33.67 1.91-34.31 1.91 4.45-27.34c2.54-15.25 8.26-33.69 13.34-41.95 11.43-17.8 37.48-18.43 47.01-1.27z" fill="#fff" />
</svg>
