<svg width="3448" height="3448" viewBox="0 0 3448 3448" fill="none" xmlns="http://www.w3.org/2000/svg">
    <g clip-path="url(#clip0)">
        <g filter="url(#filter0_d)">
            <path d="M895.5 1532.2c-81.3 29.8-123.9 124.6-106 233.3 12 75 45 122 102.2 147.4 83.2 36.9 212.2-10.2 185.5-68l-7.6-17.2-18.4 14c-45.1 33.7-117 15.3-146.1-37.5-18.5-34.3-25.5-117.6-14-164.6 21-82 96.5-90.3 121.3-13.4 7 23.6 7.6 24.2 39.4 24.2h32.4l-4.4-49.6c-6.4-76.9-7.6-79.4-35-74.3l-29.2 3.8c-68.6-6.4-98.5-5.8-120 1.9z" fill="#000" />
        </g>
        <g filter="url(#filter1_d)">
            <path d="M1202.4 1618.6c-38.8 7-54.7 16-69.3 40-15.8 26.1-15.8 37 .7 58 18.4 22.8 52.7 20.9 71.1-4 12.1-15.8 12.1-18.3 2.6-32.3-12.1-18.5-9-23.5 14.6-23.5 32.4 0 40.7 12.7 40.7 64.2l.6 47-19-3.2c-35.7-5.7-82.7-1.9-102.4 8.3-25.4 13.3-43.2 49.6-38 79.4 8.8 57.9 87 89.7 143.5 59.2 22.2-11.5 22.9-11.5 37.5 0 24.1 19.7 84.5 12.7 93.4-10.2 2.5-5.7-1.3-16-7.7-22.9-10.1-11.4-12.7-27.3-15.2-113.8-3.2-100.4-3.2-101-21.6-120.1a89 89 0 00-49.6-25.5c-26.7-7.5-55-7.8-82-.6zm54 194.5c7 2.6 10.2 12.1 10.2 28.6 0 21-2.6 26-16.6 32.5a36.2 36.2 0 01-47-51.5c7-13.4 31.8-17.8 53.4-9.6z" fill="#000" />
        </g>
        <g filter="url(#filter2_d)">
            <path d="M1436.8 1628.8c-25.4 7.6-30.5 12-30.5 24.8 0 10.8 3.9 15.9 14.7 17.1 14 2 14 3.9 15.8 103.6 1.3 98 1.3 101.8-12 112-9 6.3-12.8 14-10.2 20.9 6.4 15.3 136.6 15.3 142.3-.6 2.5-7-.6-14-9.5-19.7-13.4-9-14-13.4-14-106.8 0-89.6 1.3-98 12-104.3 17.9-8.9 36.3-7.6 47.7 3.8 8.3 8.3 10.2 27.4 10.2 107.5 0 54 2.5 104.9 6.3 113.8 7.7 20.3 29.9 26 71.2 19 40-7 53.4-22.9 31.8-37.5-13.4-9.5-14-14-14-100.4 0-101.7-5.7-131.6-29.9-150.7-24.8-19-81.3-17.8-112.4 3.2l-23.5 15.9-5.8-15.9c-5-13.3-10.1-15.9-33-15.3-15.2 0-40.7 4.5-57.2 9.6z" fill="#000" />
        </g>
        <g filter="url(#filter3_d)">
            <path d="M1836.5 1534c-9.6 9.6-3.9 28 10.8 33.8 12.7 4.4 18.4 15.2 29.2 52l48.3 164 38 128.5c5.2 18.4 48.4 15.2 71.9-5.1 21.6-17.8 31.1-44.5 61.6-167.8 9.5-39.4 18.4-70 19.7-66.8l36.2 127.2c33 117 35 120.8 51.5 122.7 9.5 1.2 24.1.6 32.4-1.3 35-9 44.5-31.8 104.2-249.8 26-94.7 27.3-96.6 47.6-103.6 17.2-5.8 19.7-9.6 17.2-22.3-2.6-15.9-3.2-15.9-71.2-15.9s-68.6 0-71.1 16c-2.6 12.6 0 17.7 13.3 24 9.5 4.5 17.2 14 18.4 23 2.6 14-39.4 191.3-48.9 209-2.5 4.5-17.2-38.7-32.4-98.4l-33-127.8c-5.8-19.7-7-20.4-40-20.4-28.6 0-36.3 2.6-46.4 15.3-10.2 13.4-50.9 150-62.3 211.7-2.5 11.4-5.7 21-8.3 21-3.8 0-49.5-173-56.5-211-2-14.7.6-18.5 14-24.2 17.1-6.4 19-10.8 12.7-28-3.2-8.3-16.5-10.2-78.2-10.2-41.3 0-76.8 2-78.8 4.5z" fill="#000" />
        </g>
        <g filter="url(#filter4_d)">
            <path d="M2496 1627.5c-50.9 22.3-82 75-82 140.5-.7 73.7 24.1 120.8 75.6 143.7 74.3 34.3 188.7-12.8 156.3-63.6-4.5-7-8.3-7-20.4 1.9-17.8 12.7-74.3 13.3-89.5 1.3-15.5-17-26-38-30.5-60.4 21.8-6.5 44.6-9.3 67.3-8.3 62.9-1.9 68-3.2 80-17.8 10.9-13.3 12.1-21.6 9.6-50.2-6.4-61.7-45.8-96-108.7-96-21.6.7-47.6 4.5-57.8 9zm73 42a91.5 91.5 0 015 40l-1.8 26.7-33.7 2-34.3 1.8 4.4-27.3c2.6-15.3 8.3-33.7 13.4-42 11.4-17.8 37.5-18.4 47-1.2z" fill="#000" />
        </g>
    </g>
    <defs>
        <filter id="filter0_d" x="771.4" y="1514.8" width="326.8" height="429.2" filterUnits="userSpaceOnUse" color-interpolation-filters="sRGB">
            <feFlood flood-opacity="0" result="BackgroundImageFix" />
            <feColorMatrix in="SourceAlpha" values="0 0 0 0 0 0 0 0 0 0 0 0 0 0 0 0 0 0 127 0" />
            <feOffset dy="4" />
            <feGaussianBlur stdDeviation="7" />
            <feColorMatrix values="0 0 0 0 0 0 0 0 0 0 0 0 0 0 0 0 0 0 0.35 0" />
            <feBlend in2="BackgroundImageFix" result="effect1_dropShadow" />
            <feBlend in="SourceGraphic" in2="effect1_dropShadow" result="shape" />
        </filter>
        <filter id="filter1_d" x="1089" y="1603.4" width="304.1" height="338.1" filterUnits="userSpaceOnUse" color-interpolation-filters="sRGB">
            <feFlood flood-opacity="0" result="BackgroundImageFix" />
            <feColorMatrix in="SourceAlpha" values="0 0 0 0 0 0 0 0 0 0 0 0 0 0 0 0 0 0 127 0" />
            <feOffset dy="4" />
            <feGaussianBlur stdDeviation="7" />
            <feColorMatrix values="0 0 0 0 0 0 0 0 0 0 0 0 0 0 0 0 0 0 0.35 0" />
            <feBlend in2="BackgroundImageFix" result="effect1_dropShadow" />
            <feBlend in="SourceGraphic" in2="effect1_dropShadow" result="shape" />
        </filter>
        <filter id="filter2_d" x="1392.3" y="1607.9" width="344.5" height="332.9" filterUnits="userSpaceOnUse" color-interpolation-filters="sRGB">
            <feFlood flood-opacity="0" result="BackgroundImageFix" />
            <feColorMatrix in="SourceAlpha" values="0 0 0 0 0 0 0 0 0 0 0 0 0 0 0 0 0 0 127 0" />
            <feOffset dy="4" />
            <feGaussianBlur stdDeviation="7" />
            <feColorMatrix values="0 0 0 0 0 0 0 0 0 0 0 0 0 0 0 0 0 0 0.35 0" />
            <feBlend in2="BackgroundImageFix" result="effect1_dropShadow" />
            <feBlend in="SourceGraphic" in2="effect1_dropShadow" result="shape" />
        </filter>
        <filter id="filter3_d" x="1817.8" y="1519.6" width="602.1" height="422.8" filterUnits="userSpaceOnUse" color-interpolation-filters="sRGB">
            <feFlood flood-opacity="0" result="BackgroundImageFix" />
            <feColorMatrix in="SourceAlpha" values="0 0 0 0 0 0 0 0 0 0 0 0 0 0 0 0 0 0 127 0" />
            <feOffset dy="4" />
            <feGaussianBlur stdDeviation="7" />
            <feColorMatrix values="0 0 0 0 0 0 0 0 0 0 0 0 0 0 0 0 0 0 0.35 0" />
            <feBlend in2="BackgroundImageFix" result="effect1_dropShadow" />
            <feBlend in="SourceGraphic" in2="effect1_dropShadow" result="shape" />
        </filter>
        <filter id="filter4_d" x="2400" y="1608.6" width="277.5" height="332.8" filterUnits="userSpaceOnUse" color-interpolation-filters="sRGB">
            <feFlood flood-opacity="0" result="BackgroundImageFix" />
            <feColorMatrix in="SourceAlpha" values="0 0 0 0 0 0 0 0 0 0 0 0 0 0 0 0 0 0 127 0" />
            <feOffset dy="4" />
            <feGaussianBlur stdDeviation="7" />
            <feColorMatrix values="0 0 0 0 0 0 0 0 0 0 0 0 0 0 0 0 0 0 0.35 0" />
            <feBlend in2="BackgroundImageFix" result="effect1_dropShadow" />
            <feBlend in="SourceGraphic" in2="effect1_dropShadow" result="shape" />
        </filter>
        <clipPath id="clip0">
            <path fill="#fff" d="M771 1358h1906v731H771z" />
        </clipPath>
    </defs>
</svg>
