<svg version="1" xmlns="http://www.w3.org/2000/svg" width="1600" height="1600" viewBox="0 0 1200.000000 1200.000000"><path d="M333 368.1l-20.5 2.9-29.5-2.1c-34.7-2.6-74.6-3-89.4-1.1-31.3 4.2-60.8 19.3-87.8 45-33.8 32.3-56.1 78.6-65 135.4-3 19.4-3.3 65.9-.5 86.8 6.8 50.6 20.1 89.8 41.5 122 9.4 14.2 31.7 37 46.2 47.2 12.3 8.7 35.7 20.7 49 25.1 37.8 12.8 83.9 13.7 126 2.6 33.5-8.9 57.8-22.4 73.3-40.9 10.8-12.8 13.9-28.5 8.7-43.4-1.7-4.8-9.8-23.7-10.5-24.4-.2-.2-6 3.9-12.9 9.1-21.1 15.7-32 21.1-50.6 24.9-13.8 2.9-37.3 2.1-51.5-1.6-22.6-6-41.6-16.9-58-33.1-12.5-12.3-17.8-19.6-24-32.9-18.3-39.1-25.9-120.7-16.4-176.6 4.6-27 17.1-53.9 32.2-69.3 6.8-6.9 18.9-14.9 26.8-17.7 9-3.1 24.4-3.9 32.5-1.5 24.7 7.1 42.6 28 54.2 63.1 2.2 6.6 4.6 13.3 5.5 15 2.2 4.1 6.8 8.3 10.8 9.6 2.1.7 15.9 1.3 36.2 1.5l32.7.5-.5-5.3c-.3-3-2.4-25.2-4.5-49.4-6-65.9-8.1-79.5-13.6-87.8-5-7.6-9.2-8-40.4-3.6zM565.3 470.2c-21.7 1.4-66.9 12-80.6 18.9-17.8 9-30.8 23.1-42.5 46.4-10 20.1-9.5 31.3 2.2 48.9 14.3 21.5 33.6 30.1 56.9 25.1 13.6-2.8 27.2-12.9 37.1-27.4 9.4-13.9 9.4-16.7-.9-33.6-7.5-12.4-9-16.7-7.2-20.4 1.7-3.6 5.1-5 15.5-6 24.6-2.6 41.4 3.4 48.1 17.1 4 8.1 6.8 21.4 7.5 35.3.9 17.5 1.8 77.5 1.2 77.5-.3 0-7.4-1.1-15.8-2.5-22.7-3.7-44.2-4.9-64.5-3.6-46.5 3-66.4 10-83 28.8-7.8 8.9-11.5 14.5-16.3 24.5-12.9 26.9-12.3 58.3 1.7 82.7 25.1 43.7 88.1 65.7 140.3 49 3.6-1.2 13.5-5.4 22.1-9.5 22.4-10.8 24.8-10.8 38-1.3 16.5 11.9 25.1 14.8 47.5 15.6 21.2.8 36.4-2.1 51.3-9.7 5.3-2.6 12.7-9.4 14.8-13.3 3.6-7.1 1.1-17.4-7.1-28.4-9.1-12.3-11-17.9-14-41.8-1.9-15.2-3.1-38.9-6.1-126-2.4-67.3-4.6-84.2-13.1-96.8-4.2-6.1-17.9-19.6-25.4-24.9-8-5.6-20.3-11.8-29-14.6-8.3-2.6-33.2-7.8-43.5-9.2-11.5-1.4-22.4-1.7-35.2-.8zM576 702c9.5 1.2 16.9 3.3 21.6 6.1 6.9 4.2 10.8 23.2 8.6 42.5-1.6 14.7-4.2 19.1-14.5 24.8-16.7 9.1-33.6 8.7-47.8-1.2-14.5-10.1-21.1-29.2-16-45.9 5.2-17.4 15-24.3 38.6-27.2.6 0 4.9.4 9.5.9zM1006 475.7c-8.5.9-25.7 4.6-32.3 7-11.3 4-19.3 8.4-36.1 19.8-10.1 6.8-15.8 10.1-16.1 9.3-.2-.7-2.2-6.2-4.5-12.3-4.2-11.5-7.7-16.8-12.7-19.8-11.2-6.5-57.1-2.9-93.6 7.4-22.3 6.3-33 11.7-36.6 18.7-1.8 3.4-2.5 15.1-1.2 19.9 1.8 6.5 5.8 9.9 14.2 11.8 10.1 2.2 12.4 3.7 14.3 8.7 2.7 7.4 3.4 13.6 5.1 48.3.8 15.6 1.8 83.7 1.9 124.1.1 56.4-.9 61.1-15.4 74.3-9 8.2-12 13-12 19.4 0 5.3 2.4 7.9 9.6 10.6 27 10.3 116.7 10.6 148.4.6 8.3-2.7 11.6-5.4 12.6-10.3 1.4-6.9-3.5-14-15.9-23.5-4.5-3.4-8-10.1-9.5-18.2-2.2-11.2-3.2-43.9-3.2-103.5 0-63.1 1.1-94.4 3.5-106.1 2.3-10.6 4.8-14.5 11.9-18.1 9.3-4.7 15.2-6.1 25.6-6.1 10.9 0 17.3 1.9 25.2 7.8 12.2 9 14.4 23.4 15.3 98 .7 60.9 1.5 101.8 2.1 111.1 3.2 50.1 5.1 59.1 14.4 68.4 8.9 8.9 20.5 12.4 41 12.4 25.9 0 53.6-5.2 69.3-13.1 8.8-4.4 15.7-12.1 15.7-17.5-.1-4.6-3.8-10.6-9.2-14.8-9.8-7.6-12.4-10.7-14.6-17.5-3.8-11.5-4.7-31.9-5.3-126.5-.5-77.4-5.1-112.5-17.5-134.8-4.5-7.9-14.2-18.4-21.6-23.2-6.9-4.5-21-9.3-33.7-11.4-8.7-1.5-29.3-1.9-39.1-.9z"/></svg>